# xmcd
#
# Track frame offsets: 
#        150
#        10311
#        24236
#        35269
#        57525
#        74132
#        87009
#        99802
#        113911
#        130217
#        142650
#        161822
#        175626
#        190071
#        203497
#        214637
#        232077
#        254488
#        264793
#        285484
#        297674
#        310196
#        321247
#        333443
#        345265
#
# Disc length: 4793 seconds
#
# Revision: 1
# Processed by: cddbd v1.5.2PL0 Copyright (c) Steve Scherf et al.
# Submitted via: ExactAudioCopy v0.95b4
#
DISCID=6212b719
DTITLE=Freddie King - The Very Best of Freddy King, Vol. 2 (1961-1962)
DYEAR=2002
DGENRE=Blues
TTITLE0=Swooshy
TTITLE1=High Rise
TTITLE2=Texas Oil
TTITLE3=She Put the Whammy on Me
TTITLE4=I'm On My Way To Atlanta
TTITLE5=Over Drive
TTITLE6=Driving Sideways
TTITLE7=Sittin' on the Boatdock
TTITLE8=Come On
TTITLE9=Do the President Twist
TTITLE10=(Let Your Love) Watch Over Me
TTITLE11=You Can't Hide
TTITLE12=It's Easy Child
TTITLE13=Your Love Keeps A-Working On Me
TTITLE14=What About Love
TTITLE15=Bossa Nova Blues
TTITLE16=The Bossa Nova Watusi Twist
TTITLE17=Walk Down that Aisle (Honey Chile)
TTITLE18=Someday After A While (You'll be Sorry)
TTITLE19=You Walked In
TTITLE20=You're Barkin' Up The Wrong Tree
TTITLE21=Is My Baby Mad With Me
TTITLE22=(The Welfare) Turns Its Back On You
TTITLE23=It Hurts To Be In Love
TTITLE24=Look Ma I'm Crying
EXTD=YEAR: 2002
EXTT0=
EXTT1=
EXTT2=
EXTT3=
EXTT4=
EXTT5=
EXTT6=
EXTT7=
EXTT8=
EXTT9=
EXTT10=
EXTT11=
EXTT12=
EXTT13=
EXTT14=
EXTT15=
EXTT16=
EXTT17=
EXTT18=
EXTT19=
EXTT20=
EXTT21=
EXTT22=
EXTT23=
EXTT24=
PLAYORDER=
